<svg xmlns="http://www.w3.org/2000/svg" width="256" height="256" viewBox="0 0 100 100"><rect width="100" height="100" rx="20" fill="#0f5f5c"></rect><path fill="#ffffff" d="M23.55 71.00Q18.74 71.00 14.24 69.69Q9.75 68.39 7.02 66.30L7.02 66.30L10.21 59.22Q12.82 61.14 16.42 62.30Q20.01 63.46 23.61 63.46L23.61 63.46Q27.61 63.46 29.53 62.27Q31.44 61.08 31.44 59.11L31.44 59.11Q31.44 57.66 30.31 56.70Q29.18 55.74 27.41 55.16Q25.64 54.58 22.62 53.89L22.62 53.89Q17.98 52.78 15.03 51.68Q12.07 50.58 9.95 48.14Q7.83 45.71 7.83 41.65L7.83 41.65Q7.83 38.11 9.75 35.24Q11.66 32.37 15.52 30.69Q19.38 29.00 24.94 29.00L24.94 29.00Q28.83 29.00 32.54 29.93Q36.25 30.86 39.04 32.60L39.04 32.60L36.14 39.73Q30.51 36.54 24.89 36.54L24.89 36.54Q20.94 36.54 19.06 37.82Q17.17 39.10 17.17 41.18L17.17 41.18Q17.17 43.27 19.35 44.29Q21.52 45.30 25.99 46.29L25.99 46.29Q30.63 47.39 33.59 48.49Q36.54 49.59 38.66 51.97Q40.78 54.35 40.78 58.41L40.78 58.41Q40.78 61.89 38.83 64.76Q36.89 67.63 33.01 69.31Q29.12 71.00 23.55 71.00L23.55 71.00ZM92.98 70.30L84.16 70.30L84.10 45.94L72.16 66.01L67.92 66.01L56.03 46.46L56.03 70.30L47.22 70.30L47.22 29.70L54.99 29.70L70.18 54.93L85.15 29.70L92.86 29.70L92.98 70.30Z"></path></svg>